Coordinates
version=1
nRows=12
nColumns=24
inDegrees=yes

Units are S.I. units (second, meters, Newtons, ...)
Angles are in degrees.

endheader
time	pelvis_tilt	pelvis_list	pelvis_rotation	pelvis_tx	pelvis_ty	pelvis_tz	hip_flexion_r	hip_adduction_r	hip_rotation_r	knee_angle_r	ankle_angle_r	subtalar_angle_r	mtp_angle_r	hip_flexion_l	hip_adduction_l	hip_rotation_l	knee_angle_l	ankle_angle_l	subtalar_angle_l	mtp_angle_l	lumbar_extension	lumbar_bending	lumbar_rotation
      4.09000000	     -8.76716913	     -8.44253307	      0.72077170	     -0.98980230	     -0.01843677	      0.56658357	     14.89893038	     11.36238628	     -5.50651159	    -13.91900483	      1.48875239	     -3.32252542	      5.40346348	     29.35737406	    -15.71936169	     -7.87814222	    -66.48740596	     -7.72154758	     21.01479107	     21.28584366	      4.34441068	      8.91275295	     -0.32318210
      4.09500000	     -8.77164244	     -8.16495981	      0.29531802	     -0.98310132	     -0.01741114	      0.56716828	     14.02401288	     11.24076665	     -4.94149565	    -13.24221644	      1.57086669	     -3.20327235	      5.34142395	     30.03167470	    -15.49874341	     -8.35813336	    -65.90692111	     -7.51400766	     21.20613043	     21.21628455	      4.29609388	      8.67342638	      0.27909741
      4.10000000	     -8.76561853	     -7.89129109	     -0.13775713	     -0.97642780	     -0.01647153	      0.56775241	     13.15234188	     11.11084471	     -4.36142935	    -12.58480281	      1.65256989	     -3.10252180	      5.25608687	     30.67428134	    -15.28796476	     -8.84496940	    -65.26339873	     -7.30083063	     21.34698435	     21.06200987	      4.23299384	      8.44202647	      0.89893998
      4.10500000	     -8.76260637	     -7.62378337	     -0.56951969	     -0.96976365	     -0.01563642	      0.56832778	     12.30010772	     10.97099803	     -3.79604574	    -11.94879008	      1.74224891	     -3.00151426	      5.15827430	     31.30060990	    -15.08546000	     -9.32611539	    -64.55533280	     -7.07982615	     21.46281714	     20.83681523	      4.17685786	      8.21539495	      1.50385353
      4.11000000	     -8.75869028	     -7.36387117	     -1.00109354	     -0.96311672	     -0.01490230	      0.56888855	     11.46279218	     10.82355785	     -3.23904860	    -11.33354984	      1.83413100	     -2.90132824	      5.04776830	     31.90731961	    -14.89096733	     -9.80086418	    -63.78644045	     -6.85245935	     21.53410242	     20.53578785	      4.11902429	      7.99770860	      2.10428120
      4.11500000	     -8.75455451	     -7.11175630	     -1.42871495	     -0.95647938	     -0.01427129	      0.56944677	     10.64023379	     10.66958310	     -2.69450704	    -10.73784933	      1.93530173	     -2.80105918	      4.92959152	     32.49433108	    -14.70524406	    -10.26637724	    -62.95604310	     -6.61910518	     21.56762904	     20.16319865	      4.06305113	      7.78808213	      2.69743710
      4.12000000	     -8.75102520	     -6.87137525	     -1.85064877	     -0.94985988	     -0.01374653	      0.56998397	      9.83498874	     10.51185817	     -2.17062683	    -10.16349119	      2.04444470	     -2.69671018	      4.81071977	     33.06480834	    -14.52744965	    -10.71367834	    -62.06642547	     -6.38031439	     21.56428411	     19.72726967	      4.00885648	      7.58984492	      3.27764716
      4.12500000	     -8.74796224	     -6.63934361	     -2.26375304	     -0.94325465	     -0.01332581	      0.57050519	      9.04603382	     10.34761535	     -1.66820345	     -9.60848912	      2.16729516	     -2.58667240	      4.69865896	     33.61416163	    -14.35493855	    -11.14818128	    -61.11136911	     -6.13769862	     21.53005283	     19.23219727	      3.95849537	      7.40577203	      3.84843827
      4.13000000	     -8.74362310	     -6.41938511	     -2.66772611	     -0.93666816	     -0.01301224	      0.57101656	      8.27138132	     10.18167923	     -1.19158613	     -9.07248179	      2.29587048	     -2.46767792	      4.59897997	     34.14454061	    -14.19027116	    -11.56230319	    -60.09953712	     -5.88644918	     21.47266057	     18.68131923	      3.90428899	      7.22669522	      4.40785525
      4.13500000	     -8.73688569	     -6.21429059	     -3.05903408	     -0.93009158	     -0.01280166	      0.57150534	      7.51004774	     10.01691716	     -0.74611831	     -8.55736301	      2.43569322	     -2.34107935	      4.51854022	     34.65160712	    -14.03128602	    -11.94894086	    -59.02537353	     -5.62806301	     21.40320038	     18.07731452	      3.85123415	      7.06327640	      4.95223238
      4.14000000	     -8.66867962	     -6.07482484	     -3.43648225	     -0.92352529	     -0.01268486	      0.57195068	      6.67795852	      9.90544038	     -0.27709749	     -8.03488286	      2.57544917	     -2.23795294	      4.41090051	     35.08543275	    -13.93643434	    -12.29793662	    -57.94587233	     -5.24612908	     21.44524786	     17.11662646	      3.72422919	      6.97169953	      5.47819184
      4.14500000	     -8.73794124	     -5.86518138	     -3.76474608	     -0.91696615	     -0.01274315	      0.57232162	      6.04692188	      9.70490185	      0.03134004	     -7.58273559	      2.75579255	     -2.08057358	      4.41415203	     35.64004291	    -13.72029458	    -12.60134732	    -56.71846868	     -5.07026103	     21.27900882	     16.65852466	      3.76639495	      6.80037625	      5.94173482
